<?xml version="1.0" standalone="no"?><svg xmlns:xlink="http://www.w3.org/1999/xlink" xmlns="http://www.w3.org/2000/svg" viewBox="0 0 1000 1500.0020380462472" preserveAspectRatio="xMaxYMax slice"><g transform="scale(4.076092494690889)"><rect x="0" y="0" width="245.33333333333334" height="368" fill="#ffffff"/><rect x="0" y="0" width="61.333333333333336" height="61.333333333333336" fill="#ffffff"/><rect x="0" y="0" width="30.67" height="30.67" fill="#003585"/><path d="M 0 30.67 A 30.67 30.67 0 0 0 30.67 0 L 0 0" fill="#586a0c"/><rect x="30.67" y="0" width="30.67" height="30.67" fill="#586a0c"/><path d="M 30.67 30.67 A 30.67 30.67 0 0 1  61.34 0 L 30.67 30.67 A 30.67 30.67 0 0 0 61.34 0" fill="#586a0c"/><rect x="0" y="30.67" width="30.67" height="30.67" fill="#003585"/><path d="M 0 30.67 A 30.67 30.67 0 0 1 30.67 61.34 L 0 61.34" fill="#586a0c"/><rect x="30.67" y="30.67" width="30.67" height="30.67" fill="#003585"/><path d="M 30.67 61.34 A 30.67 30.67 0 0 0 61.34 30.67 L 30.67 30.67" fill="#586a0c"/><rect x="61.33" y="0" width="61.33" height="61.33" fill="#003585"/><path d="M 61.33 61.33 A 61.33 61.33 0 0 1  122.66 0 L 122.66 61.33" fill="#003585"/><rect x="122.66666666666667" y="0" width="61.333333333333336" height="61.333333333333336" fill="#ffffff"/><rect x="122.67" y="0" width="30.67" height="30.67" fill="#586a0c"/><path d="M 122.67 0 A 30.67 30.67 0 0 0 153.34 30.67 L 153.34 0" fill="#003585"/><rect x="153.33" y="0" width="30.67" height="30.67" fill="#586a0c"/><path d="M 153.33 0 A 30.67 30.67 0 0 1  184 30.67 L 153.33 0 A 30.67 30.67 0 0 0 184 30.67" fill="#003585"/><rect x="122.67" y="30.67" width="30.67" height="30.67" fill="#586a0c"/><path d="M 122.67 61.34 A 30.67 30.67 0 0 1  153.34 30.67 L 122.67 61.34 A 30.67 30.67 0 0 0 153.34 30.67" fill="#586a0c"/><rect x="153.33" y="30.67" width="30.67" height="30.67" fill="#586a0c"/><path d="M 153.33 30.67 A 30.67 30.67 0 0 1 184 61.34 L 153.33 61.34" fill="#003585"/><rect x="184" y="0" width="61.33" height="61.33" fill="#003585"/><path d="M 184 61.33 A 61.33 61.33 0 0 1  245.32999999999998 0 L 245.32999999999998 61.33" fill="#586a0c"/><rect x="0" y="61.33" width="61.33" height="61.33" fill="#586a0c"/><path d="M 0 61.33 A 61.33 61.33 0 0 0 61.33 122.66 L 61.33 61.33" fill="#586a0c"/><rect x="61.333333333333336" y="61.333333333333336" width="61.333333333333336" height="61.333333333333336" fill="#ffffff"/><rect x="61.33" y="61.33" width="30.67" height="30.67" fill="#003585"/><path d="M 61.33 61.33 A 30.67 30.67 0 0 0 92 92 L 92 61.33" fill="#003585"/><rect x="92" y="61.33" width="30.67" height="30.67" fill="#003585"/><path d="M 92 92 A 30.67 30.67 0 0 0 122.67 61.33 L 92 61.33" fill="#586a0c"/><rect x="61.33" y="92" width="30.67" height="30.67" fill="#003585"/><path d="M 61.33 122.67 A 30.67 30.67 0 0 1  92 92 L 61.33 122.67 A 30.67 30.67 0 0 0 92 92" fill="#586a0c"/><rect x="92" y="92" width="30.67" height="30.67" fill="#586a0c"/><path d="M 92 122.67 A 30.67 30.67 0 0 1  122.67 92 L 122.67 122.67" fill="#586a0c"/><rect x="122.66666666666667" y="61.333333333333336" width="61.333333333333336" height="61.333333333333336" fill="#ffffff"/><rect x="122.67" y="61.33" width="30.67" height="30.67" fill="#003585"/><path d="M 122.67 61.33 A 30.67 30.67 0 0 0 153.34 92 L 153.34 61.33" fill="#586a0c"/><rect x="153.33" y="61.33" width="30.67" height="30.67" fill="#003585"/><path d="M 153.33 61.33 A 30.67 30.67 0 0 1 184 92 L 153.33 92" fill="#586a0c"/><rect x="122.67" y="92" width="30.67" height="30.67" fill="#003585"/><path d="M 122.67 122.67 A 30.67 30.67 0 0 1  153.34 92 L 153.34 122.67" fill="#586a0c"/><rect x="153.33" y="92" width="30.67" height="30.67" fill="#003585"/><path d="M 153.33 122.67 A 30.67 30.67 0 0 1  184 92 L 184 122.67" fill="#003585"/><rect x="184" y="61.333333333333336" width="61.333333333333336" height="61.333333333333336" fill="#ffffff"/><rect x="184" y="61.33" width="30.67" height="30.67" fill="#586a0c"/><path d="M 184 61.33 A 30.67 30.67 0 0 1 214.67000000000002 92 L 184 92" fill="#003585"/><rect x="214.67" y="61.33" width="30.67" height="30.67" fill="#586a0c"/><path d="M 214.67 92 A 30.67 30.67 0 0 1  245.33999999999997 61.33 L 214.67 92 A 30.67 30.67 0 0 0 245.33999999999997 61.33" fill="#586a0c"/><rect x="184" y="92" width="30.67" height="30.67" fill="#586a0c"/><path d="M 184 122.67 A 30.67 30.67 0 0 0 214.67000000000002 92 L 184 92" fill="#586a0c"/><rect x="214.67" y="92" width="30.67" height="30.67" fill="#586a0c"/><path d="M 214.67 92 A 30.67 30.67 0 0 1 245.33999999999997 122.67 L 214.67 122.67" fill="#586a0c"/><rect x="0" y="122.66666666666667" width="61.333333333333336" height="61.333333333333336" fill="#ffffff"/><rect x="0" y="122.67" width="30.67" height="30.67" fill="#003585"/><path d="M 0 153.34 A 30.67 30.67 0 0 1  30.67 122.67 L 30.67 153.34" fill="#586a0c"/><rect x="30.67" y="122.67" width="30.67" height="30.67" fill="#003585"/><path d="M 30.67 153.34 A 30.67 30.67 0 0 0 61.34 122.67 L 30.67 122.67" fill="#586a0c"/><rect x="0" y="153.33" width="30.67" height="30.67" fill="#003585"/><path d="M 0 153.33 A 30.67 30.67 0 0 1  30.67 184 L 0 153.33 A 30.67 30.67 0 0 0 30.67 184" fill="#003585"/><rect x="30.67" y="153.33" width="30.67" height="30.67" fill="#586a0c"/><path d="M 30.67 153.33 A 30.67 30.67 0 0 1 61.34 184 L 30.67 184" fill="#003585"/><rect x="61.333333333333336" y="122.66666666666667" width="61.333333333333336" height="61.333333333333336" fill="#ffffff"/><rect x="61.33" y="122.67" width="30.67" height="30.67" fill="#003585"/><path d="M 61.33 153.34 A 30.67 30.67 0 0 0 92 122.67 L 61.33 122.67" fill="#003585"/><rect x="92" y="122.67" width="30.67" height="30.67" fill="#586a0c"/><path d="M 92 153.34 A 30.67 30.67 0 0 1  122.67 122.67 L 92 153.34 A 30.67 30.67 0 0 0 122.67 122.67" fill="#586a0c"/><rect x="61.33" y="153.33" width="30.67" height="30.67" fill="#586a0c"/><path d="M 61.33 184 A 30.67 30.67 0 0 1  92 153.33 L 61.33 184 A 30.67 30.67 0 0 0 92 153.33" fill="#003585"/><rect x="92" y="153.33" width="30.67" height="30.67" fill="#003585"/><path d="M 92 184 A 30.67 30.67 0 0 0 122.67 153.33 L 92 153.33" fill="#586a0c"/><rect x="122.66666666666667" y="122.66666666666667" width="61.333333333333336" height="61.333333333333336" fill="#ffffff"/><rect x="122.67" y="122.67" width="30.67" height="30.67" fill="#003585"/><path d="M 122.67 153.34 A 30.67 30.67 0 0 1  153.34 122.67 L 153.34 153.34" fill="#586a0c"/><rect x="153.33" y="122.67" width="30.67" height="30.67" fill="#586a0c"/><path d="M 153.33 153.34 A 30.67 30.67 0 0 1  184 122.67 L 153.33 153.34 A 30.67 30.67 0 0 0 184 122.67" fill="#003585"/><rect x="122.67" y="153.33" width="30.67" height="30.67" fill="#003585"/><path d="M 122.67 184 A 30.67 30.67 0 0 1  153.34 153.33 L 153.34 184" fill="#003585"/><rect x="153.33" y="153.33" width="30.67" height="30.67" fill="#003585"/><path d="M 153.33 153.33 A 30.67 30.67 0 0 1  184 184 L 153.33 153.33 A 30.67 30.67 0 0 0 184 184" fill="#586a0c"/><rect x="184" y="122.66666666666667" width="61.333333333333336" height="61.333333333333336" fill="#ffffff"/><rect x="184" y="122.67" width="30.67" height="30.67" fill="#003585"/><path d="M 184 153.34 A 30.67 30.67 0 0 1  214.67000000000002 122.67 L 214.67000000000002 153.34" fill="#586a0c"/><rect x="214.67" y="122.67" width="30.67" height="30.67" fill="#003585"/><path d="M 214.67 153.34 A 30.67 30.67 0 0 1  245.33999999999997 122.67 L 245.33999999999997 153.34" fill="#586a0c"/><rect x="184" y="153.33" width="30.67" height="30.67" fill="#586a0c"/><path d="M 184 184 A 30.67 30.67 0 0 0 214.67000000000002 153.33 L 184 153.33" fill="#003585"/><rect x="214.67" y="153.33" width="30.67" height="30.67" fill="#586a0c"/><path d="M 214.67 153.33 A 30.67 30.67 0 0 0 245.33999999999997 184 L 245.33999999999997 153.33" fill="#003585"/><rect x="0" y="184" width="61.33" height="61.33" fill="#586a0c"/><path d="M 0 184 A 61.33 61.33 0 0 0 61.33 245.32999999999998 L 61.33 184" fill="#003585"/><rect x="61.333333333333336" y="184" width="61.333333333333336" height="61.333333333333336" fill="#ffffff"/><rect x="61.33" y="184" width="30.67" height="30.67" fill="#586a0c"/><path d="M 61.33 214.67000000000002 A 30.67 30.67 0 0 0 92 184 L 61.33 184" fill="#003585"/><rect x="92" y="184" width="30.67" height="30.67" fill="#003585"/><path d="M 92 214.67000000000002 A 30.67 30.67 0 0 1  122.67 184 L 122.67 214.67000000000002" fill="#586a0c"/><rect x="61.33" y="214.67" width="30.67" height="30.67" fill="#586a0c"/><path d="M 61.33 214.67 A 30.67 30.67 0 0 1  92 245.33999999999997 L 61.33 214.67 A 30.67 30.67 0 0 0 92 245.33999999999997" fill="#003585"/><rect x="92" y="214.67" width="30.67" height="30.67" fill="#586a0c"/><path d="M 92 245.33999999999997 A 30.67 30.67 0 0 0 122.67 214.67 L 92 214.67" fill="#586a0c"/><rect x="122.66666666666667" y="184" width="61.333333333333336" height="61.333333333333336" fill="#ffffff"/><rect x="122.67" y="184" width="30.67" height="30.67" fill="#003585"/><path d="M 122.67 184 A 30.67 30.67 0 0 1  153.34 214.67000000000002 L 122.67 184 A 30.67 30.67 0 0 0 153.34 214.67000000000002" fill="#586a0c"/><rect x="153.33" y="184" width="30.67" height="30.67" fill="#586a0c"/><path d="M 153.33 184 A 30.67 30.67 0 0 1 184 214.67000000000002 L 153.33 214.67000000000002" fill="#586a0c"/><rect x="122.67" y="214.67" width="30.67" height="30.67" fill="#003585"/><path d="M 122.67 245.33999999999997 A 30.67 30.67 0 0 0 153.34 214.67 L 122.67 214.67" fill="#586a0c"/><rect x="153.33" y="214.67" width="30.67" height="30.67" fill="#003585"/><path d="M 153.33 214.67 A 30.67 30.67 0 0 1 184 245.33999999999997 L 153.33 245.33999999999997" fill="#586a0c"/><rect x="184" y="184" width="61.333333333333336" height="61.333333333333336" fill="#ffffff"/><rect x="184" y="184" width="30.67" height="30.67" fill="#003585"/><path d="M 184 214.67000000000002 A 30.67 30.67 0 0 1  214.67000000000002 184 L 184 214.67000000000002 A 30.67 30.67 0 0 0 214.67000000000002 184" fill="#003585"/><rect x="214.67" y="184" width="30.67" height="30.67" fill="#003585"/><path d="M 214.67 184 A 30.67 30.67 0 0 1 245.33999999999997 214.67000000000002 L 214.67 214.67000000000002" fill="#003585"/><rect x="184" y="214.67" width="30.67" height="30.67" fill="#003585"/><path d="M 184 214.67 A 30.67 30.67 0 0 1  214.67000000000002 245.33999999999997 L 184 214.67 A 30.67 30.67 0 0 0 214.67000000000002 245.33999999999997" fill="#586a0c"/><rect x="214.67" y="214.67" width="30.67" height="30.67" fill="#586a0c"/><path d="M 214.67 245.33999999999997 A 30.67 30.67 0 0 1  245.33999999999997 214.67 L 214.67 245.33999999999997 A 30.67 30.67 0 0 0 245.33999999999997 214.67" fill="#586a0c"/><rect x="0" y="245.33" width="61.33" height="61.33" fill="#003585"/><path d="M 0 306.66 A 61.33 61.33 0 0 0 61.33 245.33 L 0 245.33" fill="#003585"/><rect x="61.333333333333336" y="245.33333333333334" width="61.333333333333336" height="61.333333333333336" fill="#ffffff"/><rect x="61.33" y="245.33" width="30.67" height="30.67" fill="#003585"/><path d="M 61.33 276 A 30.67 30.67 0 0 1  92 245.33 L 92 276" fill="#586a0c"/><rect x="92" y="245.33" width="30.67" height="30.67" fill="#003585"/><path d="M 92 276 A 30.67 30.67 0 0 0 122.67 245.33 L 92 245.33" fill="#586a0c"/><rect x="61.33" y="276" width="30.67" height="30.67" fill="#586a0c"/><path d="M 61.33 306.67 A 30.67 30.67 0 0 1  92 276 L 61.33 306.67 A 30.67 30.67 0 0 0 92 276" fill="#586a0c"/><rect x="92" y="276" width="30.67" height="30.67" fill="#586a0c"/><path d="M 92 276 A 30.67 30.67 0 0 1 122.67 306.67 L 92 306.67" fill="#586a0c"/><rect x="122.67" y="245.33" width="61.33" height="61.33" fill="#003585"/><path d="M 122.67 245.33 A 61.33 61.33 0 0 0 184 306.66 L 184 245.33" fill="#586a0c"/><rect x="184" y="245.33333333333334" width="61.333333333333336" height="61.333333333333336" fill="#ffffff"/><rect x="184" y="245.33" width="30.67" height="30.67" fill="#003585"/><path d="M 184 245.33 A 30.67 30.67 0 0 1 214.67000000000002 276 L 184 276" fill="#003585"/><rect x="214.67" y="245.33" width="30.67" height="30.67" fill="#003585"/><path d="M 214.67 276 A 30.67 30.67 0 0 0 245.33999999999997 245.33 L 214.67 245.33" fill="#586a0c"/><rect x="184" y="276" width="30.67" height="30.67" fill="#003585"/><path d="M 184 276 A 30.67 30.67 0 0 0 214.67000000000002 306.67 L 214.67000000000002 276" fill="#586a0c"/><rect x="214.67" y="276" width="30.67" height="30.67" fill="#586a0c"/><path d="M 214.67 306.67 A 30.67 30.67 0 0 0 245.33999999999997 276 L 214.67 276" fill="#586a0c"/><rect x="0" y="306.6666666666667" width="61.333333333333336" height="61.333333333333336" fill="#ffffff"/><rect x="0" y="306.67" width="30.67" height="30.67" fill="#003585"/><path d="M 0 337.34000000000003 A 30.67 30.67 0 0 1  30.67 306.67 L 30.67 337.34000000000003" fill="#003585"/><rect x="30.67" y="306.67" width="30.67" height="30.67" fill="#003585"/><path d="M 30.67 337.34000000000003 A 30.67 30.67 0 0 1  61.34 306.67 L 61.34 337.34000000000003" fill="#586a0c"/><rect x="0" y="337.33" width="30.67" height="30.67" fill="#586a0c"/><path d="M 0 337.33 A 30.67 30.67 0 0 1 30.67 368 L 0 368" fill="#003585"/><rect x="30.67" y="337.33" width="30.67" height="30.67" fill="#003585"/><path d="M 30.67 368 A 30.67 30.67 0 0 1  61.34 337.33 L 61.34 368" fill="#003585"/><rect x="61.333333333333336" y="306.6666666666667" width="61.333333333333336" height="61.333333333333336" fill="#ffffff"/><rect x="61.33" y="306.67" width="30.67" height="30.67" fill="#586a0c"/><path d="M 61.33 337.34000000000003 A 30.67 30.67 0 0 0 92 306.67 L 61.33 306.67" fill="#586a0c"/><rect x="92" y="306.67" width="30.67" height="30.67" fill="#003585"/><path d="M 92 337.34000000000003 A 30.67 30.67 0 0 1  122.67 306.67 L 92 337.34000000000003 A 30.67 30.67 0 0 0 122.67 306.67" fill="#586a0c"/><rect x="61.33" y="337.33" width="30.67" height="30.67" fill="#003585"/><path d="M 61.33 337.33 A 30.67 30.67 0 0 1 92 368 L 61.33 368" fill="#003585"/><rect x="92" y="337.33" width="30.67" height="30.67" fill="#586a0c"/><path d="M 92 368 A 30.67 30.67 0 0 1  122.67 337.33 L 122.67 368" fill="#586a0c"/><rect x="122.67" y="306.67" width="61.33" height="61.33" fill="#003585"/><path d="M 122.67 306.67 A 61.33 61.33 0 0 1 184 368 L 122.67 368" fill="#586a0c"/><rect x="184" y="306.6666666666667" width="61.333333333333336" height="61.333333333333336" fill="#ffffff"/><rect x="184" y="306.67" width="30.67" height="30.67" fill="#586a0c"/><path d="M 184 306.67 A 30.67 30.67 0 0 1  214.67000000000002 337.34000000000003 L 184 306.67 A 30.67 30.67 0 0 0 214.67000000000002 337.34000000000003" fill="#586a0c"/><rect x="214.67" y="306.67" width="30.67" height="30.67" fill="#003585"/><path d="M 214.67 337.34000000000003 A 30.67 30.67 0 0 1  245.33999999999997 306.67 L 245.33999999999997 337.34000000000003" fill="#586a0c"/><rect x="184" y="337.33" width="30.67" height="30.67" fill="#586a0c"/><path d="M 184 368 A 30.67 30.67 0 0 1  214.67000000000002 337.33 L 184 368 A 30.67 30.67 0 0 0 214.67000000000002 337.33" fill="#586a0c"/><rect x="214.67" y="337.33" width="30.67" height="30.67" fill="#586a0c"/><path d="M 214.67 337.33 A 30.67 30.67 0 0 1  245.33999999999997 368 L 214.67 337.33 A 30.67 30.67 0 0 0 245.33999999999997 368" fill="#003585"/></g></svg>